<mxfile host="app.diagrams.net" modified="2023-12-03T05:38:23.698Z" agent="Mozilla/5.0 (Windows NT 10.0; Win64; x64) AppleWebKit/537.36 (KHTML, like Gecko) Chrome/119.0.0.0 Safari/537.36" etag="LY_Mk1AKp7wbBm6WomdI" version="22.1.5" type="github">
  <diagram name="Page-1" id="f-5v2sI5h4t3cFkbrv8b">
    <mxGraphModel dx="435" dy="224" grid="1" gridSize="10" guides="1" tooltips="1" connect="1" arrows="1" fold="1" page="1" pageScale="1" pageWidth="850" pageHeight="1100" math="0" shadow="0">
      <root>
        <mxCell id="0" />
        <mxCell id="1" parent="0" />
        <mxCell id="Wa3p7uX86l7QjgIijev7-48" value="" style="verticalLabelPosition=bottom;verticalAlign=top;html=1;shape=mxgraph.infographic.parallelogram;dx=16.69;fillColor=#bac8d3;strokeColor=#23445d;flipH=0;flipV=1;direction=south;" vertex="1" parent="1">
          <mxGeometry x="160" y="40" width="40" height="240" as="geometry" />
        </mxCell>
        <mxCell id="Wa3p7uX86l7QjgIijev7-49" value="" style="verticalLabelPosition=bottom;verticalAlign=top;html=1;shape=mxgraph.infographic.parallelogram;dx=16.69;fillColor=#d5e8d4;strokeColor=#82b366;flipH=0;flipV=1;direction=south;" vertex="1" parent="1">
          <mxGeometry x="170" y="40" width="40" height="240" as="geometry" />
        </mxCell>
        <mxCell id="Wa3p7uX86l7QjgIijev7-50" value="" style="verticalLabelPosition=bottom;verticalAlign=top;html=1;shape=mxgraph.infographic.parallelogram;dx=16.69;fillColor=#ffe6cc;strokeColor=#d79b00;flipH=0;flipV=1;direction=south;" vertex="1" parent="1">
          <mxGeometry x="180" y="40" width="40" height="240" as="geometry" />
        </mxCell>
        <mxCell id="Wa3p7uX86l7QjgIijev7-52" value="" style="verticalLabelPosition=bottom;verticalAlign=top;html=1;shape=mxgraph.infographic.parallelogram;dx=16.69;fillColor=#d5e8d4;strokeColor=#82b366;flipH=0;flipV=1;direction=south;" vertex="1" parent="1">
          <mxGeometry x="220" y="79.36999999999999" width="30" height="155" as="geometry" />
        </mxCell>
        <mxCell id="Wa3p7uX86l7QjgIijev7-54" value="" style="verticalLabelPosition=bottom;verticalAlign=top;html=1;shape=mxgraph.infographic.parallelogram;dx=16.69;fillColor=#ffe6cc;strokeColor=#d79b00;flipH=0;flipV=1;direction=south;" vertex="1" parent="1">
          <mxGeometry x="230" y="79.36999999999999" width="30" height="155" as="geometry" />
        </mxCell>
        <mxCell id="Wa3p7uX86l7QjgIijev7-63" value="" style="verticalLabelPosition=bottom;verticalAlign=top;html=1;shape=mxgraph.infographic.parallelogram;dx=11.56;fillColor=#d5e8d4;strokeColor=#82b366;flipH=0;flipV=1;direction=south;" vertex="1" parent="1">
          <mxGeometry x="260" y="102.49" width="20" height="110" as="geometry" />
        </mxCell>
        <mxCell id="Wa3p7uX86l7QjgIijev7-69" value="" style="verticalLabelPosition=bottom;verticalAlign=top;html=1;shape=mxgraph.infographic.parallelogram;dx=11.56;fillColor=#ffe6cc;strokeColor=#d79b00;flipH=0;flipV=1;direction=south;" vertex="1" parent="1">
          <mxGeometry x="270" y="102.49" width="20" height="110" as="geometry" />
        </mxCell>
        <mxCell id="Wa3p7uX86l7QjgIijev7-66" value="" style="verticalLabelPosition=bottom;verticalAlign=top;html=1;shape=mxgraph.infographic.parallelogram;dx=6.24;fillColor=#d5e8d4;strokeColor=#82b366;flipH=0;flipV=1;direction=south;" vertex="1" parent="1">
          <mxGeometry x="290" y="131.24" width="10" height="52.5" as="geometry" />
        </mxCell>
        <mxCell id="Wa3p7uX86l7QjgIijev7-67" value="" style="verticalLabelPosition=bottom;verticalAlign=top;html=1;shape=mxgraph.infographic.parallelogram;dx=5.86;fillColor=#ffe6cc;strokeColor=#d79b00;flipH=0;flipV=1;direction=south;" vertex="1" parent="1">
          <mxGeometry x="300" y="131.24" width="10" height="51.25" as="geometry" />
        </mxCell>
        <mxCell id="Wa3p7uX86l7QjgIijev7-70" value="" style="endArrow=none;html=1;rounded=0;fillColor=#f8cecc;strokeColor=#b85450;strokeWidth=2;shadow=0;" edge="1" parent="1">
          <mxGeometry width="50" height="50" relative="1" as="geometry">
            <mxPoint x="320" y="166.87" as="sourcePoint" />
            <mxPoint x="320" y="146.87" as="targetPoint" />
          </mxGeometry>
        </mxCell>
        <mxCell id="Wa3p7uX86l7QjgIijev7-71" value="&lt;h1&gt;&lt;font face=&quot;Times New Roman&quot;&gt;Heading&lt;/font&gt;&lt;/h1&gt;&lt;p&gt;&lt;font face=&quot;DQD_PXNZRMz7GEKOn7Fx&quot;&gt;Lorem ipsum dolor sit amet, consectetur adipisicing elit, sed do eiusmod tempor incididunt ut labore et dolore magna aliqua.&lt;/font&gt;&lt;/p&gt;" style="text;html=1;strokeColor=none;fillColor=none;spacing=5;spacingTop=-20;whiteSpace=wrap;overflow=hidden;rounded=0;" vertex="1" parent="1">
          <mxGeometry x="250" y="170" width="190" height="120" as="geometry" />
        </mxCell>
      </root>
    </mxGraphModel>
  </diagram>
</mxfile>
